<?xml version="1.0" encoding="UTF-8" standalone="no"?>
<!DOCTYPE svg PUBLIC "-//W3C//DTD SVG 1.1//EN"
 "http://www.w3.org/Graphics/SVG/1.1/DTD/svg11.dtd">
<!-- Generated by graphviz version 11.0.0 (20240428.1522)
 -->
<!-- Pages: 1 -->
<svg width="1555pt" height="210pt"
 viewBox="0.00 0.00 1554.50 210.00" xmlns="http://www.w3.org/2000/svg" xmlns:xlink="http://www.w3.org/1999/xlink">
<g id="graph0" class="graph" transform="scale(1 1) rotate(0) translate(4 206)">
<polygon fill="white" stroke="none" points="-4,4 -4,-206 1550.5,-206 1550.5,4 -4,4"/>
<!-- 1848167925776 -->
<g id="node1" class="node">
<title>1848167925776</title>
<polygon fill="none" stroke="black" points="700.88,-137.5 700.88,-173.5 886.88,-173.5 886.88,-137.5 700.88,-137.5"/>
<text text-anchor="middle" x="712.62" y="-150.2" font-family="Times New Roman,serif" font-size="14.00">b</text>
<polyline fill="none" stroke="black" points="724.38,-137.75 724.38,-173.5"/>
<text text-anchor="middle" x="764.62" y="-150.2" font-family="Times New Roman,serif" font-size="14.00">data 6.8814</text>
<polyline fill="none" stroke="black" points="804.88,-137.75 804.88,-173.5"/>
<text text-anchor="middle" x="845.88" y="-150.2" font-family="Times New Roman,serif" font-size="14.00">grad 0.0000</text>
</g>
<!-- 1848455949520+ -->
<g id="node8" class="node">
<title>1848455949520+</title>
<ellipse fill="none" stroke="black" cx="986.25" cy="-127.5" rx="27" ry="18"/>
<text text-anchor="middle" x="986.25" y="-122.08" font-family="Times New Roman,serif" font-size="14.00">+</text>
</g>
<!-- 1848167925776&#45;&gt;1848455949520+ -->
<g id="edge10" class="edge">
<title>1848167925776&#45;&gt;1848455949520+</title>
<path fill="none" stroke="black" d="M887.27,-141.91C908.83,-138.74 930.57,-135.54 948.08,-132.97"/>
<polygon fill="black" stroke="black" points="948.59,-136.43 957.97,-131.51 947.57,-129.5 948.59,-136.43"/>
</g>
<!-- 1848455944272 -->
<g id="node2" class="node">
<title>1848455944272</title>
<polygon fill="none" stroke="black" points="325.5,-110.5 325.5,-146.5 538.5,-146.5 538.5,-110.5 325.5,-110.5"/>
<text text-anchor="middle" x="348.5" y="-123.2" font-family="Times New Roman,serif" font-size="14.00">x1w1</text>
<polyline fill="none" stroke="black" points="371.5,-110.75 371.5,-146.5"/>
<text text-anchor="middle" x="414" y="-123.2" font-family="Times New Roman,serif" font-size="14.00">data &#45;6.0000</text>
<polyline fill="none" stroke="black" points="456.5,-110.75 456.5,-146.5"/>
<text text-anchor="middle" x="497.5" y="-123.2" font-family="Times New Roman,serif" font-size="14.00">grad 0.0000</text>
</g>
<!-- 1848455948688+ -->
<g id="node11" class="node">
<title>1848455948688+</title>
<ellipse fill="none" stroke="black" cx="601.5" cy="-100.5" rx="27" ry="18"/>
<text text-anchor="middle" x="601.5" y="-95.08" font-family="Times New Roman,serif" font-size="14.00">+</text>
</g>
<!-- 1848455944272&#45;&gt;1848455948688+ -->
<g id="edge9" class="edge">
<title>1848455944272&#45;&gt;1848455948688+</title>
<path fill="none" stroke="black" d="M538.61,-110.85C547.54,-109.35 556.12,-107.92 563.9,-106.62"/>
<polygon fill="black" stroke="black" points="564.24,-110.11 573.53,-105.01 563.09,-103.21 564.24,-110.11"/>
</g>
<!-- 1848455944272* -->
<g id="node3" class="node">
<title>1848455944272*</title>
<ellipse fill="none" stroke="black" cx="262.5" cy="-128.5" rx="27" ry="18"/>
<text text-anchor="middle" x="262.5" y="-123.08" font-family="Times New Roman,serif" font-size="14.00">*</text>
</g>
<!-- 1848455944272*&#45;&gt;1848455944272 -->
<g id="edge1" class="edge">
<title>1848455944272*&#45;&gt;1848455944272</title>
<path fill="none" stroke="black" d="M289.67,-128.5C296.79,-128.5 304.98,-128.5 313.76,-128.5"/>
<polygon fill="black" stroke="black" points="313.64,-132 323.64,-128.5 313.64,-125 313.64,-132"/>
</g>
<!-- 1848167938128 -->
<g id="node4" class="node">
<title>1848167938128</title>
<polygon fill="none" stroke="black" points="3.75,-165.5 3.75,-201.5 195.75,-201.5 195.75,-165.5 3.75,-165.5"/>
<text text-anchor="middle" x="18.5" y="-178.2" font-family="Times New Roman,serif" font-size="14.00">x1</text>
<polyline fill="none" stroke="black" points="33.25,-165.75 33.25,-201.5"/>
<text text-anchor="middle" x="73.5" y="-178.2" font-family="Times New Roman,serif" font-size="14.00">data 2.0000</text>
<polyline fill="none" stroke="black" points="113.75,-165.75 113.75,-201.5"/>
<text text-anchor="middle" x="154.75" y="-178.2" font-family="Times New Roman,serif" font-size="14.00">grad 0.0000</text>
</g>
<!-- 1848167938128&#45;&gt;1848455944272* -->
<g id="edge14" class="edge">
<title>1848167938128&#45;&gt;1848455944272*</title>
<path fill="none" stroke="black" d="M173.43,-165.03C182.28,-162.37 191.14,-159.51 199.5,-156.5 209.59,-152.87 220.33,-148.29 229.98,-143.89"/>
<polygon fill="black" stroke="black" points="231.37,-147.1 238.95,-139.7 228.41,-140.76 231.37,-147.1"/>
</g>
<!-- 1848455940176 -->
<g id="node5" class="node">
<title>1848455940176</title>
<polygon fill="none" stroke="black" points="327.75,-55.5 327.75,-91.5 536.25,-91.5 536.25,-55.5 327.75,-55.5"/>
<text text-anchor="middle" x="350.75" y="-68.2" font-family="Times New Roman,serif" font-size="14.00">x2w2</text>
<polyline fill="none" stroke="black" points="373.75,-55.75 373.75,-91.5"/>
<text text-anchor="middle" x="414" y="-68.2" font-family="Times New Roman,serif" font-size="14.00">data 0.0000</text>
<polyline fill="none" stroke="black" points="454.25,-55.75 454.25,-91.5"/>
<text text-anchor="middle" x="495.25" y="-68.2" font-family="Times New Roman,serif" font-size="14.00">grad 0.0000</text>
</g>
<!-- 1848455940176&#45;&gt;1848455948688+ -->
<g id="edge12" class="edge">
<title>1848455940176&#45;&gt;1848455948688+</title>
<path fill="none" stroke="black" d="M536.7,-90.22C546.14,-91.74 555.22,-93.2 563.43,-94.52"/>
<polygon fill="black" stroke="black" points="562.84,-97.97 573.27,-96.11 563.95,-91.06 562.84,-97.97"/>
</g>
<!-- 1848455940176* -->
<g id="node6" class="node">
<title>1848455940176*</title>
<ellipse fill="none" stroke="black" cx="262.5" cy="-73.5" rx="27" ry="18"/>
<text text-anchor="middle" x="262.5" y="-68.08" font-family="Times New Roman,serif" font-size="14.00">*</text>
</g>
<!-- 1848455940176*&#45;&gt;1848455940176 -->
<g id="edge2" class="edge">
<title>1848455940176*&#45;&gt;1848455940176</title>
<path fill="none" stroke="black" d="M289.67,-73.5C297.34,-73.5 306.26,-73.5 315.82,-73.5"/>
<polygon fill="black" stroke="black" points="315.79,-77 325.79,-73.5 315.79,-70 315.79,-77"/>
</g>
<!-- 1848455949520 -->
<g id="node7" class="node">
<title>1848455949520</title>
<polygon fill="none" stroke="black" points="1049.25,-109.5 1049.25,-145.5 1234.5,-145.5 1234.5,-109.5 1049.25,-109.5"/>
<text text-anchor="middle" x="1060.62" y="-122.2" font-family="Times New Roman,serif" font-size="14.00">n</text>
<polyline fill="none" stroke="black" points="1072,-109.75 1072,-145.5"/>
<text text-anchor="middle" x="1112.25" y="-122.2" font-family="Times New Roman,serif" font-size="14.00">data 0.8814</text>
<polyline fill="none" stroke="black" points="1152.5,-109.75 1152.5,-145.5"/>
<text text-anchor="middle" x="1193.5" y="-122.2" font-family="Times New Roman,serif" font-size="14.00">grad 0.0000</text>
</g>
<!-- 1848455939472tanh -->
<g id="node14" class="node">
<title>1848455939472tanh</title>
<ellipse fill="none" stroke="black" cx="1297.5" cy="-127.5" rx="27" ry="18"/>
<text text-anchor="middle" x="1297.5" y="-122.08" font-family="Times New Roman,serif" font-size="14.00">tanh</text>
</g>
<!-- 1848455949520&#45;&gt;1848455939472tanh -->
<g id="edge11" class="edge">
<title>1848455949520&#45;&gt;1848455939472tanh</title>
<path fill="none" stroke="black" d="M1234.9,-127.5C1243.27,-127.5 1251.39,-127.5 1258.84,-127.5"/>
<polygon fill="black" stroke="black" points="1258.78,-131 1268.78,-127.5 1258.78,-124 1258.78,-131"/>
</g>
<!-- 1848455949520+&#45;&gt;1848455949520 -->
<g id="edge3" class="edge">
<title>1848455949520+&#45;&gt;1848455949520</title>
<path fill="none" stroke="black" d="M1013.66,-127.5C1020.7,-127.5 1028.75,-127.5 1037.3,-127.5"/>
<polygon fill="black" stroke="black" points="1037.29,-131 1047.29,-127.5 1037.29,-124 1037.29,-131"/>
</g>
<!-- 1848455002064 -->
<g id="node9" class="node">
<title>1848455002064</title>
<polygon fill="none" stroke="black" points="3.75,-55.5 3.75,-91.5 195.75,-91.5 195.75,-55.5 3.75,-55.5"/>
<text text-anchor="middle" x="18.5" y="-68.2" font-family="Times New Roman,serif" font-size="14.00">x2</text>
<polyline fill="none" stroke="black" points="33.25,-55.75 33.25,-91.5"/>
<text text-anchor="middle" x="73.5" y="-68.2" font-family="Times New Roman,serif" font-size="14.00">data 0.0000</text>
<polyline fill="none" stroke="black" points="113.75,-55.75 113.75,-91.5"/>
<text text-anchor="middle" x="154.75" y="-68.2" font-family="Times New Roman,serif" font-size="14.00">grad 0.0000</text>
</g>
<!-- 1848455002064&#45;&gt;1848455940176* -->
<g id="edge6" class="edge">
<title>1848455002064&#45;&gt;1848455940176*</title>
<path fill="none" stroke="black" d="M196.12,-73.5C205.86,-73.5 215.3,-73.5 223.83,-73.5"/>
<polygon fill="black" stroke="black" points="223.71,-77 233.71,-73.5 223.71,-70 223.71,-77"/>
</g>
<!-- 1848455948688 -->
<g id="node10" class="node">
<title>1848455948688</title>
<polygon fill="none" stroke="black" points="664.5,-82.5 664.5,-118.5 923.25,-118.5 923.25,-82.5 664.5,-82.5"/>
<text text-anchor="middle" x="710.38" y="-95.2" font-family="Times New Roman,serif" font-size="14.00">x1w1 + x2w2</text>
<polyline fill="none" stroke="black" points="756.25,-82.75 756.25,-118.5"/>
<text text-anchor="middle" x="798.75" y="-95.2" font-family="Times New Roman,serif" font-size="14.00">data &#45;6.0000</text>
<polyline fill="none" stroke="black" points="841.25,-82.75 841.25,-118.5"/>
<text text-anchor="middle" x="882.25" y="-95.2" font-family="Times New Roman,serif" font-size="14.00">grad 0.0000</text>
</g>
<!-- 1848455948688&#45;&gt;1848455949520+ -->
<g id="edge8" class="edge">
<title>1848455948688&#45;&gt;1848455949520+</title>
<path fill="none" stroke="black" d="M923.7,-118.77C932.33,-120 940.54,-121.16 947.99,-122.21"/>
<polygon fill="black" stroke="black" points="947.48,-125.68 957.87,-123.62 948.46,-118.75 947.48,-125.68"/>
</g>
<!-- 1848455948688+&#45;&gt;1848455948688 -->
<g id="edge4" class="edge">
<title>1848455948688+&#45;&gt;1848455948688</title>
<path fill="none" stroke="black" d="M628.97,-100.5C636.01,-100.5 644.12,-100.5 652.9,-100.5"/>
<polygon fill="black" stroke="black" points="652.81,-104 662.81,-100.5 652.81,-97 652.81,-104"/>
</g>
<!-- 1848167926608 -->
<g id="node12" class="node">
<title>1848167926608</title>
<polygon fill="none" stroke="black" points="2.25,-0.5 2.25,-36.5 197.25,-36.5 197.25,-0.5 2.25,-0.5"/>
<text text-anchor="middle" x="18.5" y="-13.2" font-family="Times New Roman,serif" font-size="14.00">w2</text>
<polyline fill="none" stroke="black" points="34.75,-0.75 34.75,-36.5"/>
<text text-anchor="middle" x="75" y="-13.2" font-family="Times New Roman,serif" font-size="14.00">data 1.0000</text>
<polyline fill="none" stroke="black" points="115.25,-0.75 115.25,-36.5"/>
<text text-anchor="middle" x="156.25" y="-13.2" font-family="Times New Roman,serif" font-size="14.00">grad 0.0000</text>
</g>
<!-- 1848167926608&#45;&gt;1848455940176* -->
<g id="edge7" class="edge">
<title>1848167926608&#45;&gt;1848455940176*</title>
<path fill="none" stroke="black" d="M170.45,-36.99C180.27,-39.97 190.19,-43.17 199.5,-46.5 209.46,-50.06 220.09,-54.46 229.68,-58.67"/>
<polygon fill="black" stroke="black" points="228.04,-61.77 238.6,-62.66 230.9,-55.38 228.04,-61.77"/>
</g>
<!-- 1848455939472 -->
<g id="node13" class="node">
<title>1848455939472</title>
<polygon fill="none" stroke="black" points="1360.5,-109.5 1360.5,-145.5 1546.5,-145.5 1546.5,-109.5 1360.5,-109.5"/>
<text text-anchor="middle" x="1372.25" y="-122.2" font-family="Times New Roman,serif" font-size="14.00">o</text>
<polyline fill="none" stroke="black" points="1384,-109.75 1384,-145.5"/>
<text text-anchor="middle" x="1424.25" y="-122.2" font-family="Times New Roman,serif" font-size="14.00">data 0.7071</text>
<polyline fill="none" stroke="black" points="1464.5,-109.75 1464.5,-145.5"/>
<text text-anchor="middle" x="1505.5" y="-122.2" font-family="Times New Roman,serif" font-size="14.00">grad 0.0000</text>
</g>
<!-- 1848455939472tanh&#45;&gt;1848455939472 -->
<g id="edge5" class="edge">
<title>1848455939472tanh&#45;&gt;1848455939472</title>
<path fill="none" stroke="black" d="M1324.97,-127.5C1332.11,-127.5 1340.28,-127.5 1348.96,-127.5"/>
<polygon fill="black" stroke="black" points="1348.69,-131 1358.69,-127.5 1348.69,-124 1348.69,-131"/>
</g>
<!-- 1848167927760 -->
<g id="node15" class="node">
<title>1848167927760</title>
<polygon fill="none" stroke="black" points="0,-110.5 0,-146.5 199.5,-146.5 199.5,-110.5 0,-110.5"/>
<text text-anchor="middle" x="16.25" y="-123.2" font-family="Times New Roman,serif" font-size="14.00">w1</text>
<polyline fill="none" stroke="black" points="32.5,-110.75 32.5,-146.5"/>
<text text-anchor="middle" x="75" y="-123.2" font-family="Times New Roman,serif" font-size="14.00">data &#45;3.0000</text>
<polyline fill="none" stroke="black" points="117.5,-110.75 117.5,-146.5"/>
<text text-anchor="middle" x="158.5" y="-123.2" font-family="Times New Roman,serif" font-size="14.00">grad 0.0000</text>
</g>
<!-- 1848167927760&#45;&gt;1848455944272* -->
<g id="edge13" class="edge">
<title>1848167927760&#45;&gt;1848455944272*</title>
<path fill="none" stroke="black" d="M199.81,-128.5C208.19,-128.5 216.28,-128.5 223.69,-128.5"/>
<polygon fill="black" stroke="black" points="223.58,-132 233.58,-128.5 223.58,-125 223.58,-132"/>
</g>
</g>
</svg>
