<?xml version="1.0" encoding="UTF-8" standalone="no"?>
<!DOCTYPE svg PUBLIC "-//W3C//DTD SVG 1.1//EN"
 "http://www.w3.org/Graphics/SVG/1.1/DTD/svg11.dtd">
<!-- Generated by graphviz version 11.0.0 (20240428.1522)
 -->
<!-- Pages: 1 -->
<svg width="1147pt" height="154pt"
 viewBox="0.00 0.00 1147.25 154.00" xmlns="http://www.w3.org/2000/svg" xmlns:xlink="http://www.w3.org/1999/xlink">
<g id="graph0" class="graph" transform="scale(1 1) rotate(0) translate(4 150)">
<polygon fill="white" stroke="none" points="-4,4 -4,-150 1143.25,-150 1143.25,4 -4,4"/>
<!-- 1954181063696 -->
<g id="node1" class="node">
<title>1954181063696</title>
<polygon fill="none" stroke="black" points="318,-27.5 318,-63.5 507,-63.5 507,-27.5 318,-27.5"/>
<text text-anchor="middle" x="329" y="-40.2" font-family="Times New Roman,serif" font-size="14.00">e</text>
<polyline fill="none" stroke="black" points="340,-27.75 340,-63.5"/>
<text text-anchor="middle" x="382.5" y="-40.2" font-family="Times New Roman,serif" font-size="14.00">data &#45;6.0000</text>
<polyline fill="none" stroke="black" points="425,-27.75 425,-63.5"/>
<text text-anchor="middle" x="466" y="-40.2" font-family="Times New Roman,serif" font-size="14.00">grad 0.0000</text>
</g>
<!-- 1954181056528+ -->
<g id="node4" class="node">
<title>1954181056528+</title>
<ellipse fill="none" stroke="black" cx="571.5" cy="-72.5" rx="27" ry="18"/>
<text text-anchor="middle" x="571.5" y="-67.08" font-family="Times New Roman,serif" font-size="14.00">+</text>
</g>
<!-- 1954181063696&#45;&gt;1954181056528+ -->
<g id="edge8" class="edge">
<title>1954181063696&#45;&gt;1954181056528+</title>
<path fill="none" stroke="black" d="M507.09,-61.6C516.45,-63.2 525.5,-64.76 533.71,-66.17"/>
<polygon fill="black" stroke="black" points="533.1,-69.62 543.55,-67.87 534.29,-62.72 533.1,-69.62"/>
</g>
<!-- 1954181063696* -->
<g id="node2" class="node">
<title>1954181063696*</title>
<ellipse fill="none" stroke="black" cx="253.5" cy="-45.5" rx="27" ry="18"/>
<text text-anchor="middle" x="253.5" y="-40.08" font-family="Times New Roman,serif" font-size="14.00">*</text>
</g>
<!-- 1954181063696*&#45;&gt;1954181063696 -->
<g id="edge1" class="edge">
<title>1954181063696*&#45;&gt;1954181063696</title>
<path fill="none" stroke="black" d="M280.78,-45.5C288.29,-45.5 296.96,-45.5 306.2,-45.5"/>
<polygon fill="black" stroke="black" points="306.2,-49 316.2,-45.5 306.2,-42 306.2,-49"/>
</g>
<!-- 1954181056528 -->
<g id="node3" class="node">
<title>1954181056528</title>
<polygon fill="none" stroke="black" points="635.25,-54.5 635.25,-90.5 821.25,-90.5 821.25,-54.5 635.25,-54.5"/>
<text text-anchor="middle" x="647" y="-67.2" font-family="Times New Roman,serif" font-size="14.00">d</text>
<polyline fill="none" stroke="black" points="658.75,-54.75 658.75,-90.5"/>
<text text-anchor="middle" x="699" y="-67.2" font-family="Times New Roman,serif" font-size="14.00">data 4.0000</text>
<polyline fill="none" stroke="black" points="739.25,-54.75 739.25,-90.5"/>
<text text-anchor="middle" x="780.25" y="-67.2" font-family="Times New Roman,serif" font-size="14.00">grad 0.0000</text>
</g>
<!-- 1954181055120* -->
<g id="node8" class="node">
<title>1954181055120*</title>
<ellipse fill="none" stroke="black" cx="885" cy="-99.5" rx="27" ry="18"/>
<text text-anchor="middle" x="885" y="-94.08" font-family="Times New Roman,serif" font-size="14.00">*</text>
</g>
<!-- 1954181056528&#45;&gt;1954181055120* -->
<g id="edge6" class="edge">
<title>1954181056528&#45;&gt;1954181055120*</title>
<path fill="none" stroke="black" d="M821.5,-88.6C830.64,-90.19 839.48,-91.73 847.5,-93.13"/>
<polygon fill="black" stroke="black" points="846.66,-96.54 857.12,-94.81 847.87,-89.64 846.66,-96.54"/>
</g>
<!-- 1954181056528+&#45;&gt;1954181056528 -->
<g id="edge2" class="edge">
<title>1954181056528+&#45;&gt;1954181056528</title>
<path fill="none" stroke="black" d="M598.75,-72.5C606.11,-72.5 614.58,-72.5 623.59,-72.5"/>
<polygon fill="black" stroke="black" points="623.3,-76 633.3,-72.5 623.3,-69 623.3,-76"/>
</g>
<!-- 1952327639632 -->
<g id="node5" class="node">
<title>1952327639632</title>
<polygon fill="none" stroke="black" points="3,-55.5 3,-91.5 187.5,-91.5 187.5,-55.5 3,-55.5"/>
<text text-anchor="middle" x="14" y="-68.2" font-family="Times New Roman,serif" font-size="14.00">a</text>
<polyline fill="none" stroke="black" points="25,-55.75 25,-91.5"/>
<text text-anchor="middle" x="65.25" y="-68.2" font-family="Times New Roman,serif" font-size="14.00">data 2.0000</text>
<polyline fill="none" stroke="black" points="105.5,-55.75 105.5,-91.5"/>
<text text-anchor="middle" x="146.5" y="-68.2" font-family="Times New Roman,serif" font-size="14.00">grad 0.0000</text>
</g>
<!-- 1952327639632&#45;&gt;1954181063696* -->
<g id="edge4" class="edge">
<title>1952327639632&#45;&gt;1954181063696*</title>
<path fill="none" stroke="black" d="M187.59,-57.13C197.51,-55.35 207.14,-53.63 215.8,-52.08"/>
<polygon fill="black" stroke="black" points="216.25,-55.55 225.48,-50.34 215.02,-48.66 216.25,-55.55"/>
</g>
<!-- 1954181062224 -->
<g id="node6" class="node">
<title>1954181062224</title>
<polygon fill="none" stroke="black" points="634.5,-109.5 634.5,-145.5 822,-145.5 822,-109.5 634.5,-109.5"/>
<text text-anchor="middle" x="644.75" y="-122.2" font-family="Times New Roman,serif" font-size="14.00">f</text>
<polyline fill="none" stroke="black" points="655,-109.75 655,-145.5"/>
<text text-anchor="middle" x="697.5" y="-122.2" font-family="Times New Roman,serif" font-size="14.00">data &#45;2.0000</text>
<polyline fill="none" stroke="black" points="740,-109.75 740,-145.5"/>
<text text-anchor="middle" x="781" y="-122.2" font-family="Times New Roman,serif" font-size="14.00">grad 0.0000</text>
</g>
<!-- 1954181062224&#45;&gt;1954181055120* -->
<g id="edge5" class="edge">
<title>1954181062224&#45;&gt;1954181055120*</title>
<path fill="none" stroke="black" d="M822.39,-110.65C831.15,-109.06 839.63,-107.53 847.34,-106.13"/>
<polygon fill="black" stroke="black" points="847.71,-109.62 856.93,-104.4 846.46,-102.73 847.71,-109.62"/>
</g>
<!-- 1954181055120 -->
<g id="node7" class="node">
<title>1954181055120</title>
<polygon fill="none" stroke="black" points="948,-81.5 948,-117.5 1139.25,-117.5 1139.25,-81.5 948,-81.5"/>
<text text-anchor="middle" x="960.12" y="-94.2" font-family="Times New Roman,serif" font-size="14.00">L</text>
<polyline fill="none" stroke="black" points="972.25,-81.75 972.25,-117.5"/>
<text text-anchor="middle" x="1014.75" y="-94.2" font-family="Times New Roman,serif" font-size="14.00">data &#45;8.0000</text>
<polyline fill="none" stroke="black" points="1057.25,-81.75 1057.25,-117.5"/>
<text text-anchor="middle" x="1098.25" y="-94.2" font-family="Times New Roman,serif" font-size="14.00">grad 0.0000</text>
</g>
<!-- 1954181055120*&#45;&gt;1954181055120 -->
<g id="edge3" class="edge">
<title>1954181055120*&#45;&gt;1954181055120</title>
<path fill="none" stroke="black" d="M912.22,-99.5C919.38,-99.5 927.61,-99.5 936.37,-99.5"/>
<polygon fill="black" stroke="black" points="936.21,-103 946.21,-99.5 936.21,-96 936.21,-103"/>
</g>
<!-- 1954201672336 -->
<g id="node9" class="node">
<title>1954201672336</title>
<polygon fill="none" stroke="black" points="0,-0.5 0,-36.5 190.5,-36.5 190.5,-0.5 0,-0.5"/>
<text text-anchor="middle" x="11.75" y="-13.2" font-family="Times New Roman,serif" font-size="14.00">b</text>
<polyline fill="none" stroke="black" points="23.5,-0.75 23.5,-36.5"/>
<text text-anchor="middle" x="66" y="-13.2" font-family="Times New Roman,serif" font-size="14.00">data &#45;3.0000</text>
<polyline fill="none" stroke="black" points="108.5,-0.75 108.5,-36.5"/>
<text text-anchor="middle" x="149.5" y="-13.2" font-family="Times New Roman,serif" font-size="14.00">grad 0.0000</text>
</g>
<!-- 1954201672336&#45;&gt;1954181063696* -->
<g id="edge9" class="edge">
<title>1954201672336&#45;&gt;1954181063696*</title>
<path fill="none" stroke="black" d="M190.75,-34.83C199.54,-36.35 208.04,-37.82 215.78,-39.15"/>
<polygon fill="black" stroke="black" points="214.94,-42.56 225.39,-40.81 216.13,-35.66 214.94,-42.56"/>
</g>
<!-- 1952327472592 -->
<g id="node10" class="node">
<title>1952327472592</title>
<polygon fill="none" stroke="black" points="316.5,-82.5 316.5,-118.5 508.5,-118.5 508.5,-82.5 316.5,-82.5"/>
<text text-anchor="middle" x="327.88" y="-95.2" font-family="Times New Roman,serif" font-size="14.00">c</text>
<polyline fill="none" stroke="black" points="339.25,-82.75 339.25,-118.5"/>
<text text-anchor="middle" x="382.88" y="-95.2" font-family="Times New Roman,serif" font-size="14.00">data 10.0000</text>
<polyline fill="none" stroke="black" points="426.5,-82.75 426.5,-118.5"/>
<text text-anchor="middle" x="467.5" y="-95.2" font-family="Times New Roman,serif" font-size="14.00">grad 0.0000</text>
</g>
<!-- 1952327472592&#45;&gt;1954181056528+ -->
<g id="edge7" class="edge">
<title>1952327472592&#45;&gt;1954181056528+</title>
<path fill="none" stroke="black" d="M508.9,-83.49C517.68,-81.92 526.17,-80.41 533.89,-79.03"/>
<polygon fill="black" stroke="black" points="534.25,-82.52 543.48,-77.32 533.02,-75.63 534.25,-82.52"/>
</g>
</g>
</svg>
