<?xml version="1.0" encoding="UTF-8" standalone="no"?>
<!DOCTYPE svg PUBLIC "-//W3C//DTD SVG 1.1//EN"
 "http://www.w3.org/Graphics/SVG/1.1/DTD/svg11.dtd">
<!-- Generated by graphviz version 11.0.0 (20240428.1522)
 -->
<!-- Pages: 1 -->
<svg width="505pt" height="45pt"
 viewBox="0.00 0.00 504.50 45.00" xmlns="http://www.w3.org/2000/svg" xmlns:xlink="http://www.w3.org/1999/xlink">
<g id="graph0" class="graph" transform="scale(1 1) rotate(0) translate(4 41)">
<polygon fill="white" stroke="none" points="-4,4 -4,-41 500.5,-41 500.5,4 -4,4"/>
<!-- 1952327666576 -->
<g id="node1" class="node">
<title>1952327666576</title>
<polygon fill="none" stroke="black" points="310.5,-0.5 310.5,-36.5 496.5,-36.5 496.5,-0.5 310.5,-0.5"/>
<text text-anchor="middle" x="322.25" y="-13.2" font-family="Times New Roman,serif" font-size="14.00">b</text>
<polyline fill="none" stroke="black" points="334,-0.75 334,-36.5"/>
<text text-anchor="middle" x="374.25" y="-13.2" font-family="Times New Roman,serif" font-size="14.00">data 6.0000</text>
<polyline fill="none" stroke="black" points="414.5,-0.75 414.5,-36.5"/>
<text text-anchor="middle" x="455.5" y="-13.2" font-family="Times New Roman,serif" font-size="14.00">grad 1.0000</text>
</g>
<!-- 1952327666576+ -->
<g id="node2" class="node">
<title>1952327666576+</title>
<ellipse fill="none" stroke="black" cx="247.5" cy="-18.5" rx="27" ry="18"/>
<text text-anchor="middle" x="247.5" y="-13.07" font-family="Times New Roman,serif" font-size="14.00">+</text>
</g>
<!-- 1952327666576+&#45;&gt;1952327666576 -->
<g id="edge1" class="edge">
<title>1952327666576+&#45;&gt;1952327666576</title>
<path fill="none" stroke="black" d="M274.97,-18.5C282.11,-18.5 290.28,-18.5 298.96,-18.5"/>
<polygon fill="black" stroke="black" points="298.69,-22 308.69,-18.5 298.69,-15 298.69,-22"/>
</g>
<!-- 1952328915024 -->
<g id="node3" class="node">
<title>1952328915024</title>
<polygon fill="none" stroke="black" points="0,-0.5 0,-36.5 184.5,-36.5 184.5,-0.5 0,-0.5"/>
<text text-anchor="middle" x="11" y="-13.2" font-family="Times New Roman,serif" font-size="14.00">a</text>
<polyline fill="none" stroke="black" points="22,-0.75 22,-36.5"/>
<text text-anchor="middle" x="62.25" y="-13.2" font-family="Times New Roman,serif" font-size="14.00">data 3.0000</text>
<polyline fill="none" stroke="black" points="102.5,-0.75 102.5,-36.5"/>
<text text-anchor="middle" x="143.5" y="-13.2" font-family="Times New Roman,serif" font-size="14.00">grad 2.0000</text>
</g>
<!-- 1952328915024&#45;&gt;1952327666576+ -->
<g id="edge2" class="edge">
<title>1952328915024&#45;&gt;1952327666576+</title>
<path fill="none" stroke="black" d="M184.61,-18.5C193.01,-18.5 201.16,-18.5 208.64,-18.5"/>
<polygon fill="black" stroke="black" points="208.64,-22 218.64,-18.5 208.64,-15 208.64,-22"/>
</g>
</g>
</svg>
