<?xml version="1.0" encoding="UTF-8" standalone="no"?>
<!DOCTYPE svg PUBLIC "-//W3C//DTD SVG 1.1//EN"
 "http://www.w3.org/Graphics/SVG/1.1/DTD/svg11.dtd">
<!-- Generated by graphviz version 11.0.0 (20240428.1522)
 -->
<!-- Pages: 1 -->
<svg width="1555pt" height="210pt"
 viewBox="0.00 0.00 1554.50 210.00" xmlns="http://www.w3.org/2000/svg" xmlns:xlink="http://www.w3.org/1999/xlink">
<g id="graph0" class="graph" transform="scale(1 1) rotate(0) translate(4 206)">
<polygon fill="white" stroke="none" points="-4,4 -4,-206 1550.5,-206 1550.5,4 -4,4"/>
<!-- 1952328922128 -->
<g id="node1" class="node">
<title>1952328922128</title>
<polygon fill="none" stroke="black" points="2.25,-165.5 2.25,-201.5 197.25,-201.5 197.25,-165.5 2.25,-165.5"/>
<text text-anchor="middle" x="18.5" y="-178.2" font-family="Times New Roman,serif" font-size="14.00">w2</text>
<polyline fill="none" stroke="black" points="34.75,-165.75 34.75,-201.5"/>
<text text-anchor="middle" x="75" y="-178.2" font-family="Times New Roman,serif" font-size="14.00">data 1.0000</text>
<polyline fill="none" stroke="black" points="115.25,-165.75 115.25,-201.5"/>
<text text-anchor="middle" x="156.25" y="-178.2" font-family="Times New Roman,serif" font-size="14.00">grad 0.0000</text>
</g>
<!-- 1952328918480* -->
<g id="node15" class="node">
<title>1952328918480*</title>
<ellipse fill="none" stroke="black" cx="262.5" cy="-128.5" rx="27" ry="18"/>
<text text-anchor="middle" x="262.5" y="-123.08" font-family="Times New Roman,serif" font-size="14.00">*</text>
</g>
<!-- 1952328922128&#45;&gt;1952328918480* -->
<g id="edge14" class="edge">
<title>1952328922128&#45;&gt;1952328918480*</title>
<path fill="none" stroke="black" d="M173.43,-165.03C182.28,-162.37 191.14,-159.51 199.5,-156.5 209.59,-152.87 220.33,-148.29 229.98,-143.89"/>
<polygon fill="black" stroke="black" points="231.37,-147.1 238.95,-139.7 228.41,-140.76 231.37,-147.1"/>
</g>
<!-- 1952328923728 -->
<g id="node2" class="node">
<title>1952328923728</title>
<polygon fill="none" stroke="black" points="700.88,-27.5 700.88,-63.5 886.88,-63.5 886.88,-27.5 700.88,-27.5"/>
<text text-anchor="middle" x="712.62" y="-40.2" font-family="Times New Roman,serif" font-size="14.00">b</text>
<polyline fill="none" stroke="black" points="724.38,-27.75 724.38,-63.5"/>
<text text-anchor="middle" x="764.62" y="-40.2" font-family="Times New Roman,serif" font-size="14.00">data 6.8814</text>
<polyline fill="none" stroke="black" points="804.88,-27.75 804.88,-63.5"/>
<text text-anchor="middle" x="845.88" y="-40.2" font-family="Times New Roman,serif" font-size="14.00">grad 0.5000</text>
</g>
<!-- 1952328920272+ -->
<g id="node4" class="node">
<title>1952328920272+</title>
<ellipse fill="none" stroke="black" cx="986.25" cy="-72.5" rx="27" ry="18"/>
<text text-anchor="middle" x="986.25" y="-67.08" font-family="Times New Roman,serif" font-size="14.00">+</text>
</g>
<!-- 1952328923728&#45;&gt;1952328920272+ -->
<g id="edge6" class="edge">
<title>1952328923728&#45;&gt;1952328920272+</title>
<path fill="none" stroke="black" d="M887.27,-58.6C908.83,-61.66 930.57,-64.74 948.08,-67.23"/>
<polygon fill="black" stroke="black" points="947.58,-70.69 957.97,-68.63 948.56,-63.76 947.58,-70.69"/>
</g>
<!-- 1952328920272 -->
<g id="node3" class="node">
<title>1952328920272</title>
<polygon fill="none" stroke="black" points="1049.25,-54.5 1049.25,-90.5 1234.5,-90.5 1234.5,-54.5 1049.25,-54.5"/>
<text text-anchor="middle" x="1060.62" y="-67.2" font-family="Times New Roman,serif" font-size="14.00">n</text>
<polyline fill="none" stroke="black" points="1072,-54.75 1072,-90.5"/>
<text text-anchor="middle" x="1112.25" y="-67.2" font-family="Times New Roman,serif" font-size="14.00">data 0.8814</text>
<polyline fill="none" stroke="black" points="1152.5,-54.75 1152.5,-90.5"/>
<text text-anchor="middle" x="1193.5" y="-67.2" font-family="Times New Roman,serif" font-size="14.00">grad 0.5000</text>
</g>
<!-- 1952328269648tanh -->
<g id="node11" class="node">
<title>1952328269648tanh</title>
<ellipse fill="none" stroke="black" cx="1297.5" cy="-72.5" rx="27" ry="18"/>
<text text-anchor="middle" x="1297.5" y="-67.08" font-family="Times New Roman,serif" font-size="14.00">tanh</text>
</g>
<!-- 1952328920272&#45;&gt;1952328269648tanh -->
<g id="edge12" class="edge">
<title>1952328920272&#45;&gt;1952328269648tanh</title>
<path fill="none" stroke="black" d="M1234.9,-72.5C1243.27,-72.5 1251.39,-72.5 1258.84,-72.5"/>
<polygon fill="black" stroke="black" points="1258.78,-76 1268.78,-72.5 1258.78,-69 1258.78,-76"/>
</g>
<!-- 1952328920272+&#45;&gt;1952328920272 -->
<g id="edge1" class="edge">
<title>1952328920272+&#45;&gt;1952328920272</title>
<path fill="none" stroke="black" d="M1013.66,-72.5C1020.7,-72.5 1028.75,-72.5 1037.3,-72.5"/>
<polygon fill="black" stroke="black" points="1037.29,-76 1047.29,-72.5 1037.29,-69 1037.29,-76"/>
</g>
<!-- 1952328923600 -->
<g id="node5" class="node">
<title>1952328923600</title>
<polygon fill="none" stroke="black" points="1.5,-55.5 1.5,-91.5 198,-91.5 198,-55.5 1.5,-55.5"/>
<text text-anchor="middle" x="16.25" y="-68.2" font-family="Times New Roman,serif" font-size="14.00">x1</text>
<polyline fill="none" stroke="black" points="31,-55.75 31,-91.5"/>
<text text-anchor="middle" x="71.25" y="-68.2" font-family="Times New Roman,serif" font-size="14.00">data 2.0000</text>
<polyline fill="none" stroke="black" points="111.5,-55.75 111.5,-91.5"/>
<text text-anchor="middle" x="154.75" y="-68.2" font-family="Times New Roman,serif" font-size="14.00">grad &#45;1.5000</text>
</g>
<!-- 1952328910800* -->
<g id="node13" class="node">
<title>1952328910800*</title>
<ellipse fill="none" stroke="black" cx="262.5" cy="-73.5" rx="27" ry="18"/>
<text text-anchor="middle" x="262.5" y="-68.08" font-family="Times New Roman,serif" font-size="14.00">*</text>
</g>
<!-- 1952328923600&#45;&gt;1952328910800* -->
<g id="edge10" class="edge">
<title>1952328923600&#45;&gt;1952328910800*</title>
<path fill="none" stroke="black" d="M198.43,-73.5C207.33,-73.5 215.94,-73.5 223.79,-73.5"/>
<polygon fill="black" stroke="black" points="223.53,-77 233.53,-73.5 223.53,-70 223.53,-77"/>
</g>
<!-- 1952328923856 -->
<g id="node6" class="node">
<title>1952328923856</title>
<polygon fill="none" stroke="black" points="0,-0.5 0,-36.5 199.5,-36.5 199.5,-0.5 0,-0.5"/>
<text text-anchor="middle" x="16.25" y="-13.2" font-family="Times New Roman,serif" font-size="14.00">w1</text>
<polyline fill="none" stroke="black" points="32.5,-0.75 32.5,-36.5"/>
<text text-anchor="middle" x="75" y="-13.2" font-family="Times New Roman,serif" font-size="14.00">data &#45;3.0000</text>
<polyline fill="none" stroke="black" points="117.5,-0.75 117.5,-36.5"/>
<text text-anchor="middle" x="158.5" y="-13.2" font-family="Times New Roman,serif" font-size="14.00">grad 1.0000</text>
</g>
<!-- 1952328923856&#45;&gt;1952328910800* -->
<g id="edge9" class="edge">
<title>1952328923856&#45;&gt;1952328910800*</title>
<path fill="none" stroke="black" d="M173.43,-36.97C182.28,-39.63 191.14,-42.49 199.5,-45.5 209.59,-49.13 220.33,-53.71 229.98,-58.11"/>
<polygon fill="black" stroke="black" points="228.41,-61.24 238.95,-62.3 231.37,-54.9 228.41,-61.24"/>
</g>
<!-- 1952328916240 -->
<g id="node7" class="node">
<title>1952328916240</title>
<polygon fill="none" stroke="black" points="3.75,-110.5 3.75,-146.5 195.75,-146.5 195.75,-110.5 3.75,-110.5"/>
<text text-anchor="middle" x="18.5" y="-123.2" font-family="Times New Roman,serif" font-size="14.00">x2</text>
<polyline fill="none" stroke="black" points="33.25,-110.75 33.25,-146.5"/>
<text text-anchor="middle" x="73.5" y="-123.2" font-family="Times New Roman,serif" font-size="14.00">data 0.0000</text>
<polyline fill="none" stroke="black" points="113.75,-110.75 113.75,-146.5"/>
<text text-anchor="middle" x="154.75" y="-123.2" font-family="Times New Roman,serif" font-size="14.00">grad 0.5000</text>
</g>
<!-- 1952328916240&#45;&gt;1952328918480* -->
<g id="edge7" class="edge">
<title>1952328916240&#45;&gt;1952328918480*</title>
<path fill="none" stroke="black" d="M196.12,-128.5C205.86,-128.5 215.3,-128.5 223.83,-128.5"/>
<polygon fill="black" stroke="black" points="223.71,-132 233.71,-128.5 223.71,-125 223.71,-132"/>
</g>
<!-- 1952328910160 -->
<g id="node8" class="node">
<title>1952328910160</title>
<polygon fill="none" stroke="black" points="664.5,-82.5 664.5,-118.5 923.25,-118.5 923.25,-82.5 664.5,-82.5"/>
<text text-anchor="middle" x="710.38" y="-95.2" font-family="Times New Roman,serif" font-size="14.00">x1w1 + x2w2</text>
<polyline fill="none" stroke="black" points="756.25,-82.75 756.25,-118.5"/>
<text text-anchor="middle" x="798.75" y="-95.2" font-family="Times New Roman,serif" font-size="14.00">data &#45;6.0000</text>
<polyline fill="none" stroke="black" points="841.25,-82.75 841.25,-118.5"/>
<text text-anchor="middle" x="882.25" y="-95.2" font-family="Times New Roman,serif" font-size="14.00">grad 0.5000</text>
</g>
<!-- 1952328910160&#45;&gt;1952328920272+ -->
<g id="edge8" class="edge">
<title>1952328910160&#45;&gt;1952328920272+</title>
<path fill="none" stroke="black" d="M920.53,-82.02C930.44,-80.56 939.85,-79.18 948.27,-77.94"/>
<polygon fill="black" stroke="black" points="948.59,-81.43 957.97,-76.51 947.57,-74.5 948.59,-81.43"/>
</g>
<!-- 1952328910160+ -->
<g id="node9" class="node">
<title>1952328910160+</title>
<ellipse fill="none" stroke="black" cx="601.5" cy="-100.5" rx="27" ry="18"/>
<text text-anchor="middle" x="601.5" y="-95.08" font-family="Times New Roman,serif" font-size="14.00">+</text>
</g>
<!-- 1952328910160+&#45;&gt;1952328910160 -->
<g id="edge2" class="edge">
<title>1952328910160+&#45;&gt;1952328910160</title>
<path fill="none" stroke="black" d="M628.97,-100.5C636.01,-100.5 644.12,-100.5 652.9,-100.5"/>
<polygon fill="black" stroke="black" points="652.81,-104 662.81,-100.5 652.81,-97 652.81,-104"/>
</g>
<!-- 1952328269648 -->
<g id="node10" class="node">
<title>1952328269648</title>
<polygon fill="none" stroke="black" points="1360.5,-54.5 1360.5,-90.5 1546.5,-90.5 1546.5,-54.5 1360.5,-54.5"/>
<text text-anchor="middle" x="1372.25" y="-67.2" font-family="Times New Roman,serif" font-size="14.00">o</text>
<polyline fill="none" stroke="black" points="1384,-54.75 1384,-90.5"/>
<text text-anchor="middle" x="1424.25" y="-67.2" font-family="Times New Roman,serif" font-size="14.00">data 0.7071</text>
<polyline fill="none" stroke="black" points="1464.5,-54.75 1464.5,-90.5"/>
<text text-anchor="middle" x="1505.5" y="-67.2" font-family="Times New Roman,serif" font-size="14.00">grad 1.0000</text>
</g>
<!-- 1952328269648tanh&#45;&gt;1952328269648 -->
<g id="edge3" class="edge">
<title>1952328269648tanh&#45;&gt;1952328269648</title>
<path fill="none" stroke="black" d="M1324.97,-72.5C1332.11,-72.5 1340.28,-72.5 1348.96,-72.5"/>
<polygon fill="black" stroke="black" points="1348.69,-76 1358.69,-72.5 1348.69,-69 1348.69,-76"/>
</g>
<!-- 1952328910800 -->
<g id="node12" class="node">
<title>1952328910800</title>
<polygon fill="none" stroke="black" points="325.5,-55.5 325.5,-91.5 538.5,-91.5 538.5,-55.5 325.5,-55.5"/>
<text text-anchor="middle" x="348.5" y="-68.2" font-family="Times New Roman,serif" font-size="14.00">x1w1</text>
<polyline fill="none" stroke="black" points="371.5,-55.75 371.5,-91.5"/>
<text text-anchor="middle" x="414" y="-68.2" font-family="Times New Roman,serif" font-size="14.00">data &#45;6.0000</text>
<polyline fill="none" stroke="black" points="456.5,-55.75 456.5,-91.5"/>
<text text-anchor="middle" x="497.5" y="-68.2" font-family="Times New Roman,serif" font-size="14.00">grad 0.5000</text>
</g>
<!-- 1952328910800&#45;&gt;1952328910160+ -->
<g id="edge11" class="edge">
<title>1952328910800&#45;&gt;1952328910160+</title>
<path fill="none" stroke="black" d="M538.61,-90.52C547.35,-91.93 555.75,-93.29 563.4,-94.52"/>
<polygon fill="black" stroke="black" points="562.8,-97.97 573.23,-96.1 563.91,-91.06 562.8,-97.97"/>
</g>
<!-- 1952328910800*&#45;&gt;1952328910800 -->
<g id="edge4" class="edge">
<title>1952328910800*&#45;&gt;1952328910800</title>
<path fill="none" stroke="black" d="M289.67,-73.5C296.79,-73.5 304.98,-73.5 313.76,-73.5"/>
<polygon fill="black" stroke="black" points="313.64,-77 323.64,-73.5 313.64,-70 313.64,-77"/>
</g>
<!-- 1952328918480 -->
<g id="node14" class="node">
<title>1952328918480</title>
<polygon fill="none" stroke="black" points="327.75,-110.5 327.75,-146.5 536.25,-146.5 536.25,-110.5 327.75,-110.5"/>
<text text-anchor="middle" x="350.75" y="-123.2" font-family="Times New Roman,serif" font-size="14.00">x2w2</text>
<polyline fill="none" stroke="black" points="373.75,-110.75 373.75,-146.5"/>
<text text-anchor="middle" x="414" y="-123.2" font-family="Times New Roman,serif" font-size="14.00">data 0.0000</text>
<polyline fill="none" stroke="black" points="454.25,-110.75 454.25,-146.5"/>
<text text-anchor="middle" x="495.25" y="-123.2" font-family="Times New Roman,serif" font-size="14.00">grad 0.5000</text>
</g>
<!-- 1952328918480&#45;&gt;1952328910160+ -->
<g id="edge13" class="edge">
<title>1952328918480&#45;&gt;1952328910160+</title>
<path fill="none" stroke="black" d="M536.7,-111.17C546.14,-109.59 555.22,-108.07 563.43,-106.7"/>
<polygon fill="black" stroke="black" points="563.98,-110.15 573.27,-105.05 562.83,-103.25 563.98,-110.15"/>
</g>
<!-- 1952328918480*&#45;&gt;1952328918480 -->
<g id="edge5" class="edge">
<title>1952328918480*&#45;&gt;1952328918480</title>
<path fill="none" stroke="black" d="M289.67,-128.5C297.34,-128.5 306.26,-128.5 315.82,-128.5"/>
<polygon fill="black" stroke="black" points="315.79,-132 325.79,-128.5 315.79,-125 315.79,-132"/>
</g>
</g>
</svg>
