<?xml version="1.0" encoding="UTF-8" standalone="no"?>
<!DOCTYPE svg PUBLIC "-//W3C//DTD SVG 1.1//EN"
 "http://www.w3.org/Graphics/SVG/1.1/DTD/svg11.dtd">
<!-- Generated by graphviz version 11.0.0 (20240428.1522)
 -->
<!-- Pages: 1 -->
<svg width="1152pt" height="128pt"
 viewBox="0.00 0.00 1151.75 128.00" xmlns="http://www.w3.org/2000/svg" xmlns:xlink="http://www.w3.org/1999/xlink">
<g id="graph0" class="graph" transform="scale(1 1) rotate(0) translate(4 124)">
<polygon fill="white" stroke="none" points="-4,4 -4,-124 1147.75,-124 1147.75,4 -4,4"/>
<!-- 1954181062224 -->
<g id="node1" class="node">
<title>1954181062224</title>
<polygon fill="none" stroke="black" points="642,-82.5 642,-118.5 829.5,-118.5 829.5,-82.5 642,-82.5"/>
<text text-anchor="middle" x="652.25" y="-95.2" font-family="Times New Roman,serif" font-size="14.00">f</text>
<polyline fill="none" stroke="black" points="662.5,-82.75 662.5,-118.5"/>
<text text-anchor="middle" x="705" y="-95.2" font-family="Times New Roman,serif" font-size="14.00">data &#45;1.9600</text>
<polyline fill="none" stroke="black" points="747.5,-82.75 747.5,-118.5"/>
<text text-anchor="middle" x="788.5" y="-95.2" font-family="Times New Roman,serif" font-size="14.00">grad 4.0000</text>
</g>
<!-- 1954181156944* -->
<g id="node3" class="node">
<title>1954181156944*</title>
<ellipse fill="none" stroke="black" cx="894" cy="-72.5" rx="27" ry="18"/>
<text text-anchor="middle" x="894" y="-67.08" font-family="Times New Roman,serif" font-size="14.00">*</text>
</g>
<!-- 1954181062224&#45;&gt;1954181156944* -->
<g id="edge6" class="edge">
<title>1954181062224&#45;&gt;1954181156944*</title>
<path fill="none" stroke="black" d="M829.9,-83.81C839.21,-82.14 848.22,-80.52 856.38,-79.06"/>
<polygon fill="black" stroke="black" points="856.95,-82.52 866.18,-77.31 855.71,-75.63 856.95,-82.52"/>
</g>
<!-- 1954181156944 -->
<g id="node2" class="node">
<title>1954181156944</title>
<polygon fill="none" stroke="black" points="957,-54.5 957,-90.5 1143.75,-90.5 1143.75,-54.5 957,-54.5"/>
<text text-anchor="middle" x="966.88" y="-67.2" font-family="Times New Roman,serif" font-size="14.00"> </text>
<polyline fill="none" stroke="black" points="976.75,-54.75 976.75,-90.5"/>
<text text-anchor="middle" x="1019.25" y="-67.2" font-family="Times New Roman,serif" font-size="14.00">data &#45;7.2865</text>
<polyline fill="none" stroke="black" points="1061.75,-54.75 1061.75,-90.5"/>
<text text-anchor="middle" x="1102.75" y="-67.2" font-family="Times New Roman,serif" font-size="14.00">grad 0.0000</text>
</g>
<!-- 1954181156944*&#45;&gt;1954181156944 -->
<g id="edge1" class="edge">
<title>1954181156944*&#45;&gt;1954181156944</title>
<path fill="none" stroke="black" d="M921.19,-72.5C928.32,-72.5 936.52,-72.5 945.23,-72.5"/>
<polygon fill="black" stroke="black" points="945,-76 955,-72.5 945,-69 945,-76"/>
</g>
<!-- 1952327639632 -->
<g id="node4" class="node">
<title>1952327639632</title>
<polygon fill="none" stroke="black" points="5.25,-83.5 5.25,-119.5 189.75,-119.5 189.75,-83.5 5.25,-83.5"/>
<text text-anchor="middle" x="16.25" y="-96.2" font-family="Times New Roman,serif" font-size="14.00">a</text>
<polyline fill="none" stroke="black" points="27.25,-83.75 27.25,-119.5"/>
<text text-anchor="middle" x="67.5" y="-96.2" font-family="Times New Roman,serif" font-size="14.00">data 2.0600</text>
<polyline fill="none" stroke="black" points="107.75,-83.75 107.75,-119.5"/>
<text text-anchor="middle" x="148.75" y="-96.2" font-family="Times New Roman,serif" font-size="14.00">grad 6.0000</text>
</g>
<!-- 1952328269008* -->
<g id="node7" class="node">
<title>1952328269008*</title>
<ellipse fill="none" stroke="black" cx="258" cy="-73.5" rx="27" ry="18"/>
<text text-anchor="middle" x="258" y="-68.08" font-family="Times New Roman,serif" font-size="14.00">*</text>
</g>
<!-- 1952327639632&#45;&gt;1952328269008* -->
<g id="edge8" class="edge">
<title>1952327639632&#45;&gt;1952328269008*</title>
<path fill="none" stroke="black" d="M190.24,-85.29C200.93,-83.41 211.3,-81.57 220.56,-79.94"/>
<polygon fill="black" stroke="black" points="220.91,-83.43 230.15,-78.24 219.69,-76.54 220.91,-83.43"/>
</g>
<!-- 1954201672336 -->
<g id="node5" class="node">
<title>1954201672336</title>
<polygon fill="none" stroke="black" points="0,-28.5 0,-64.5 195,-64.5 195,-28.5 0,-28.5"/>
<text text-anchor="middle" x="11.75" y="-41.2" font-family="Times New Roman,serif" font-size="14.00">b</text>
<polyline fill="none" stroke="black" points="23.5,-28.75 23.5,-64.5"/>
<text text-anchor="middle" x="66" y="-41.2" font-family="Times New Roman,serif" font-size="14.00">data &#45;3.0400</text>
<polyline fill="none" stroke="black" points="108.5,-28.75 108.5,-64.5"/>
<text text-anchor="middle" x="151.75" y="-41.2" font-family="Times New Roman,serif" font-size="14.00">grad &#45;4.0000</text>
</g>
<!-- 1954201672336&#45;&gt;1952328269008* -->
<g id="edge7" class="edge">
<title>1954201672336&#45;&gt;1952328269008*</title>
<path fill="none" stroke="black" d="M195.27,-62.98C204.08,-64.49 212.6,-65.94 220.34,-67.25"/>
<polygon fill="black" stroke="black" points="219.49,-70.66 229.94,-68.89 220.67,-63.76 219.49,-70.66"/>
</g>
<!-- 1952328269008 -->
<g id="node6" class="node">
<title>1952328269008</title>
<polygon fill="none" stroke="black" points="321,-55.5 321,-91.5 514.5,-91.5 514.5,-55.5 321,-55.5"/>
<text text-anchor="middle" x="332" y="-68.2" font-family="Times New Roman,serif" font-size="14.00">e</text>
<polyline fill="none" stroke="black" points="343,-55.75 343,-91.5"/>
<text text-anchor="middle" x="385.5" y="-68.2" font-family="Times New Roman,serif" font-size="14.00">data &#45;6.2624</text>
<polyline fill="none" stroke="black" points="428,-55.75 428,-91.5"/>
<text text-anchor="middle" x="471.25" y="-68.2" font-family="Times New Roman,serif" font-size="14.00">grad &#45;2.0000</text>
</g>
<!-- 1952328267472+ -->
<g id="node9" class="node">
<title>1952328267472+</title>
<ellipse fill="none" stroke="black" cx="577.5" cy="-45.5" rx="27" ry="18"/>
<text text-anchor="middle" x="577.5" y="-40.08" font-family="Times New Roman,serif" font-size="14.00">+</text>
</g>
<!-- 1952328269008&#45;&gt;1952328267472+ -->
<g id="edge9" class="edge">
<title>1952328269008&#45;&gt;1952328267472+</title>
<path fill="none" stroke="black" d="M514.61,-56.49C523.52,-54.9 532.13,-53.38 539.94,-51.99"/>
<polygon fill="black" stroke="black" points="540.42,-55.46 549.65,-50.27 539.2,-48.57 540.42,-55.46"/>
</g>
<!-- 1952328269008*&#45;&gt;1952328269008 -->
<g id="edge2" class="edge">
<title>1952328269008*&#45;&gt;1952328269008</title>
<path fill="none" stroke="black" d="M285.4,-73.5C292.56,-73.5 300.77,-73.5 309.51,-73.5"/>
<polygon fill="black" stroke="black" points="309.32,-77 319.32,-73.5 309.32,-70 309.32,-77"/>
</g>
<!-- 1952328267472 -->
<g id="node8" class="node">
<title>1952328267472</title>
<polygon fill="none" stroke="black" points="640.5,-27.5 640.5,-63.5 831,-63.5 831,-27.5 640.5,-27.5"/>
<text text-anchor="middle" x="652.25" y="-40.2" font-family="Times New Roman,serif" font-size="14.00">d</text>
<polyline fill="none" stroke="black" points="664,-27.75 664,-63.5"/>
<text text-anchor="middle" x="704.25" y="-40.2" font-family="Times New Roman,serif" font-size="14.00">data 3.7176</text>
<polyline fill="none" stroke="black" points="744.5,-27.75 744.5,-63.5"/>
<text text-anchor="middle" x="787.75" y="-40.2" font-family="Times New Roman,serif" font-size="14.00">grad &#45;2.0000</text>
</g>
<!-- 1952328267472&#45;&gt;1954181156944* -->
<g id="edge4" class="edge">
<title>1952328267472&#45;&gt;1954181156944*</title>
<path fill="none" stroke="black" d="M831.25,-61.83C840.04,-63.35 848.54,-64.82 856.28,-66.15"/>
<polygon fill="black" stroke="black" points="855.44,-69.56 865.89,-67.81 856.63,-62.66 855.44,-69.56"/>
</g>
<!-- 1952328267472+&#45;&gt;1952328267472 -->
<g id="edge3" class="edge">
<title>1952328267472+&#45;&gt;1952328267472</title>
<path fill="none" stroke="black" d="M604.65,-45.5C611.8,-45.5 620.01,-45.5 628.75,-45.5"/>
<polygon fill="black" stroke="black" points="628.56,-49 638.56,-45.5 628.56,-42 628.56,-49"/>
</g>
<!-- 1952327472592 -->
<g id="node10" class="node">
<title>1952327472592</title>
<polygon fill="none" stroke="black" points="322.88,-0.5 322.88,-36.5 512.62,-36.5 512.62,-0.5 322.88,-0.5"/>
<text text-anchor="middle" x="334.25" y="-13.2" font-family="Times New Roman,serif" font-size="14.00">c</text>
<polyline fill="none" stroke="black" points="345.62,-0.75 345.62,-36.5"/>
<text text-anchor="middle" x="385.88" y="-13.2" font-family="Times New Roman,serif" font-size="14.00">data 9.9800</text>
<polyline fill="none" stroke="black" points="426.12,-0.75 426.12,-36.5"/>
<text text-anchor="middle" x="469.38" y="-13.2" font-family="Times New Roman,serif" font-size="14.00">grad &#45;2.0000</text>
</g>
<!-- 1952327472592&#45;&gt;1952328267472+ -->
<g id="edge5" class="edge">
<title>1952327472592&#45;&gt;1952328267472+</title>
<path fill="none" stroke="black" d="M512.79,-34.6C522.3,-36.22 531.5,-37.8 539.82,-39.22"/>
<polygon fill="black" stroke="black" points="538.98,-42.63 549.43,-40.87 540.16,-35.73 538.98,-42.63"/>
</g>
</g>
</svg>
